<svg width="0" height="0" class="hidden">
  <symbol xmlns="http://www.w3.org/2000/svg" viewBox="0 0 14 14" id="Ellipse 8">
    <circle id="Ellipse 8" cx="7" cy="7" r="6.5" stroke="white"></circle>
  </symbol>
  <symbol xmlns="http://www.w3.org/2000/svg" viewBox="0 0 16 17" id="next">
    <g id="vuesax/bold/next">
      <g id="vuesax/bold/next_2">
        <g id="next">
          <path id="Vector" d="M2.50665 5.586V11.966C2.50665 13.2727 3.92665 14.0927 5.05999 13.4393L7.82665 11.846L10.5933 10.246C11.7267 9.59266 11.7267 7.95933 10.5933 7.306L7.82665 5.706L5.05999 4.11266C3.92665 3.45933 2.50665 4.27266 2.50665 5.586Z"></path>
          <path id="Vector_2" d="M13.4933 13.3926C13.22 13.3926 12.9933 13.166 12.9933 12.8926V4.65265C12.9933 4.37932 13.22 4.15265 13.4933 4.15265C13.7667 4.15265 13.9933 4.37932 13.9933 4.65265V12.8926C13.9933 13.166 13.7733 13.3926 13.4933 13.3926Z"></path>
        </g>
      </g>
    </g>
  </symbol>
  <symbol xmlns="http://www.w3.org/2000/svg" viewBox="0 0 16 17" id="previous">
    <g id="vuesax/bold/previous">
      <g id="vuesax/bold/previous_2">
        <g id="previous">
          <path id="Vector" d="M13.4933 5.586V11.966C13.4933 13.2727 12.0733 14.0927 10.94 13.4393L8.17331 11.846L5.40664 10.246C4.27331 9.59266 4.27331 7.95933 5.40664 7.306L8.17331 5.706L10.94 4.11266C12.0733 3.45933 13.4933 4.27266 13.4933 5.586Z"></path>
          <path id="Vector_2" d="M2.50665 13.3926C2.23332 13.3926 2.00665 13.166 2.00665 12.8926V4.65265C2.00665 4.37932 2.23332 4.15265 2.50665 4.15265C2.77999 4.15265 3.00665 4.37932 3.00665 4.65265V12.8926C3.00665 13.166 2.77999 13.3926 2.50665 13.3926Z"></path>
        </g>
      </g>
    </g>
  </symbol>
  <symbol xmlns="http://www.w3.org/2000/svg" viewBox="0 0 16 17" id="repeate-one">
    <g id="vuesax/bold/repeate-one">
      <g id="vuesax/bold/repeate-one_2">
        <g id="repeate-one">
          <path id="Vector" d="M2.60665 12.226C2.47998 12.226 2.35331 12.1793 2.25331 12.0793C1.33998 11.1593 0.833313 9.94599 0.833313 8.65932C0.833313 5.98599 2.99998 3.81266 5.66665 3.81266L9.71331 3.82599L8.98665 3.13266C8.78665 2.93932 8.77998 2.62599 8.97331 2.42599C9.16665 2.22599 9.47998 2.21932 9.67998 2.41266L11.3066 3.97266C11.4533 4.11266 11.5 4.33266 11.4266 4.51932C11.3533 4.70599 11.1666 4.83266 10.96 4.83266L5.66665 4.81932C3.55331 4.81932 1.83331 6.54599 1.83331 8.66599C1.83331 9.68599 2.23331 10.6527 2.95998 11.3793C3.15331 11.5727 3.15331 11.8927 2.95998 12.086C2.85998 12.1793 2.73331 12.226 2.60665 12.226Z"></path>
          <path id="Vector_2" d="M6.66666 15.2727C6.53999 15.2727 6.41999 15.226 6.31999 15.1327L4.69333 13.5727C4.54666 13.4327 4.49999 13.2127 4.57333 13.026C4.65333 12.8393 4.83999 12.7393 5.03999 12.7127L10.34 12.726C12.4533 12.726 14.1733 10.9993 14.1733 8.87933C14.1733 7.85933 13.7733 6.89266 13.0467 6.166C12.8533 5.97266 12.8533 5.65266 13.0467 5.45933C13.24 5.266 13.56 5.266 13.7533 5.45933C14.6667 6.37933 15.1733 7.59266 15.1733 8.87933C15.1733 11.5527 13.0067 13.726 10.34 13.726L6.29333 13.7127L7.01999 14.406C7.21999 14.5993 7.22666 14.9127 7.03333 15.1127C6.92666 15.2193 6.79999 15.2727 6.66666 15.2727Z"></path>
          <path id="Vector_3" d="M8.16669 11.0527C7.89335 11.0527 7.66669 10.826 7.66669 10.5527V8.29267L7.54002 8.43267C7.35335 8.63934 7.04002 8.65267 6.83335 8.47267C6.62669 8.29267 6.61335 7.97267 6.79335 7.766L7.79335 6.65267C7.93335 6.49934 8.15335 6.446 8.34669 6.51934C8.54002 6.59934 8.66669 6.77934 8.66669 6.99267V10.5593C8.66669 10.8327 8.44002 11.0527 8.16669 11.0527Z"></path>
        </g>
      </g>
    </g>
  </symbol>
  <symbol xmlns="http://www.w3.org/2000/svg" viewBox="0 0 16 17" id="shuffle">
    <g id="vuesax/bold/shuffle">
      <g id="vuesax/bold/shuffle_2">
        <g id="shuffle">
          <path id="Vector" d="M14.5 12.7593C14.5 12.746 14.4933 12.7326 14.4933 12.7193C14.4866 12.666 14.48 12.6126 14.46 12.566C14.4333 12.506 14.4 12.4593 14.36 12.4126C14.36 12.4126 14.36 12.406 14.3533 12.406C14.3066 12.3593 14.2533 12.326 14.1933 12.2993C14.1333 12.2726 14.0666 12.2593 14 12.2593L10.8866 12.2726C10.8866 12.2726 10.8866 12.2726 10.88 12.2726C10.48 12.2726 10.0933 12.086 9.8533 11.766L9.03997 10.7193C8.8733 10.4993 8.55997 10.4593 8.33997 10.6326C8.11997 10.806 8.07996 11.1126 8.2533 11.3326L9.06663 12.3793C9.49997 12.9393 10.18 13.2726 10.8866 13.2726H10.8933L12.7933 13.266L12.32 13.7393C12.1266 13.9326 12.1266 14.2526 12.32 14.446C12.42 14.546 12.5466 14.5926 12.6733 14.5926C12.8 14.5926 12.9266 14.546 13.0266 14.446L14.36 13.1126C14.4066 13.066 14.44 13.0126 14.4666 12.9526C14.4866 12.886 14.5 12.8193 14.5 12.7593Z"></path>
          <path id="Vector_2" d="M5.61333 5.23263C5.18 4.63263 4.48667 4.2793 3.74667 4.2793C3.74 4.2793 3.74 4.2793 3.73333 4.2793L2 4.28596C1.72667 4.28596 1.5 4.51263 1.5 4.78596C1.5 5.0593 1.72667 5.28596 2 5.28596L3.74 5.2793H3.74667C4.16667 5.2793 4.56 5.4793 4.8 5.8193L5.52 6.8193C5.62 6.95263 5.77333 7.02596 5.92667 7.02596C6.02667 7.02596 6.13333 6.99263 6.22 6.93263C6.44667 6.76596 6.49333 6.45263 6.33333 6.23263L5.61333 5.23263Z"></path>
          <path id="Vector_3" d="M14.4933 4.826C14.4933 4.81266 14.5 4.79933 14.5 4.79267C14.5 4.726 14.4867 4.65933 14.46 4.59933C14.4333 4.53933 14.4 4.486 14.3533 4.43933L13.02 3.106C12.8267 2.91267 12.5067 2.91267 12.3133 3.106C12.12 3.29933 12.12 3.61933 12.3133 3.81267L12.7867 4.286L10.9667 4.27933C10.96 4.27933 10.96 4.27933 10.9533 4.27933C10.1867 4.27933 9.46667 4.65933 9.04 5.306L4.78 11.6927C4.54 12.0527 4.13333 12.2727 3.7 12.2727H3.69333L2 12.2593C1.72667 12.2593 1.5 12.4793 1.5 12.7593C1.5 13.0327 1.72 13.2593 2 13.2593L3.7 13.266C3.70667 13.266 3.70667 13.266 3.71333 13.266C4.48667 13.266 5.2 12.886 5.62667 12.2393L9.88667 5.85267C10.1267 5.49267 10.5333 5.27267 10.9667 5.27267H10.9733L14 5.286C14.0667 5.286 14.1267 5.27267 14.1933 5.246C14.2533 5.21933 14.3067 5.186 14.3533 5.13933C14.3533 5.13933 14.3533 5.13266 14.36 5.13266C14.4 5.086 14.44 5.03933 14.46 4.97933C14.48 4.93266 14.4867 4.87933 14.4933 4.826Z"></path>
        </g>
      </g>
    </g>
  </symbol>
  <symbol xmlns="http://www.w3.org/2000/svg" viewBox="0 0 9 10" id="Vector">
    <path id="Vector" d="M0.333313 4.77262V2.9536C0.333313 0.619203 1.9856 -0.335721 4.00167 0.831476L5.57811 1.74094L7.1546 2.65041C9.17066 3.81761 9.17066 5.72764 7.1546 6.89484L5.57811 7.80431L4.00167 8.71377C1.9856 9.88097 0.333313 8.92605 0.333313 6.59165V4.77262Z"></path>
  </symbol>
  <symbol xmlns="http://www.w3.org/2000/svg" viewBox="0 0 18 18" id="volume-high">
    <g id="vuesax/bold/volume-high">
      <g id="volume-high">
        <path id="Vector" d="M13.5 12.5625C13.38 12.5625 13.2675 12.525 13.1625 12.45C12.915 12.2625 12.8625 11.91 13.05 11.6625C14.2275 10.095 14.2275 7.90502 13.05 6.33752C12.8625 6.09002 12.915 5.73752 13.1625 5.55002C13.41 5.36252 13.7625 5.41502 13.95 5.66252C15.42 7.62752 15.42 10.3725 13.95 12.3375C13.8375 12.4875 13.6725 12.5625 13.5 12.5625Z"></path>
        <path id="Vector_2" d="M14.8725 14.4375C14.7525 14.4375 14.64 14.4 14.535 14.325C14.2875 14.1375 14.235 13.785 14.4225 13.5375C16.425 10.8675 16.425 7.13252 14.4225 4.46252C14.235 4.21502 14.2875 3.86252 14.535 3.67502C14.7825 3.48752 15.135 3.54002 15.3225 3.78752C17.625 6.85502 17.625 11.145 15.3225 14.2125C15.2175 14.3625 15.045 14.4375 14.8725 14.4375Z"></path>
        <path id="Vector_3" d="M10.515 2.83498C9.675 2.36998 8.6025 2.48998 7.5075 3.17248L5.3175 4.54498C5.1675 4.63498 4.995 4.68748 4.8225 4.68748H4.125H3.75C1.935 4.68748 0.9375 5.68498 0.9375 7.49998V10.5C0.9375 12.315 1.935 13.3125 3.75 13.3125H4.125H4.8225C4.995 13.3125 5.1675 13.365 5.3175 13.455L7.5075 14.8275C8.1675 15.24 8.8125 15.4425 9.4125 15.4425C9.8025 15.4425 10.1775 15.3525 10.515 15.165C11.3475 14.7 11.8125 13.7325 11.8125 12.4425V5.55748C11.8125 4.26748 11.3475 3.29998 10.515 2.83498Z"></path>
      </g>
    </g>
  </symbol>
</svg>