<svg width="0" height="0" class="hidden">
  <symbol xmlns="http://www.w3.org/2000/svg" viewBox="0 0 40 42" id="Home">
    <g id="Home" opacity="0.25">
      <g id="Iconly/Bulk/Home">
        <g id="Home_2">
          <g id="Vector" filter="url(#filter0_d_1_230)">
            <path d="M17.3817 29.0502V26.239C17.3817 25.5266 17.961 24.9478 18.6785 24.9433H21.3132C22.0339 24.9433 22.6182 25.5234 22.6182 26.239V29.0421C22.6182 29.66 23.1203 30.1621 23.7427 30.1666H25.5401C26.3796 30.1688 27.1855 29.8392 27.7799 29.2506C28.3742 28.662 28.7083 27.8628 28.7083 27.0294V19.0437C28.7083 18.3704 28.4077 17.7318 27.8875 17.2999L21.781 12.4514C20.7136 11.6033 19.1891 11.6307 18.1532 12.5166L12.1781 17.2999C11.6333 17.7191 11.3077 18.3596 11.2916 19.0437V27.0212C11.2916 28.7584 12.7101 30.1666 14.4598 30.1666H16.2162C16.5159 30.1688 16.804 30.0521 17.0166 29.8425C17.2293 29.6329 17.3489 29.3477 17.3489 29.0502H17.3817Z" ></path>
          </g>
        </g>
      </g>
    </g>
    <defs>
      <filter id="filter0_d_1_230" x="0.291626" y="0.833313" width="39.4166" height="40.3334" filterUnits="userSpaceOnUse" color-interpolation-filters="sRGB">
        <feFlood flood-opacity="0" result="BackgroundImageFix"></feFlood>
        <feColorMatrix in="SourceAlpha" type="matrix" values="0 0 0 0 0 0 0 0 0 0 0 0 0 0 0 0 0 0 127 0" result="hardAlpha"></feColorMatrix>
        <feOffset></feOffset>
        <feGaussianBlur stdDeviation="5.5"></feGaussianBlur>
        <feComposite in2="hardAlpha" operator="out"></feComposite>
        <feColorMatrix type="matrix" values="0 0 0 0 0.980392 0 0 0 0 0.803921 0 0 0 0 0.4 0 0 0 0.25 0"></feColorMatrix>
        <feBlend mode="normal" in2="BackgroundImageFix" result="effect1_dropShadow_1_230"></feBlend>
        <feBlend mode="normal" in="SourceGraphic" in2="effect1_dropShadow_1_230" result="shape"></feBlend>
      </filter>
    </defs>
  </symbol>
  <symbol xmlns="http://www.w3.org/2000/svg" viewBox="0 0 22 22" id="Logout">
    <g id="Logout" opacity="0.25">
      <g id="Iconly/Bold/Logout">
        <g id="Logout_2">
          <path id="Vector" d="M10.535 1.83331C12.8107 1.83331 14.6667 3.65748 14.6667 5.90331V10.2941H9.07078C8.66974 10.2941 8.35263 10.6058 8.35263 11C8.35263 11.385 8.66974 11.7058 9.07078 11.7058H14.6667V16.0875C14.6667 18.3333 12.8107 20.1666 10.5164 20.1666H5.97436C3.68936 20.1666 1.83337 18.3425 1.83337 16.0966V5.91248C1.83337 3.65748 3.69868 1.83331 5.98369 1.83331H10.535ZM16.9952 7.83766C17.2702 7.5535 17.7194 7.5535 17.9944 7.8285L20.6711 10.496C20.8086 10.6335 20.8819 10.8077 20.8819 11.0002C20.8819 11.1835 20.8086 11.3668 20.6711 11.4952L17.9944 14.1627C17.8569 14.3002 17.6736 14.3735 17.4994 14.3735C17.3161 14.3735 17.1327 14.3002 16.9952 14.1627C16.7202 13.8877 16.7202 13.4385 16.9952 13.1635L18.4619 11.706H14.6669V10.2943H18.4619L16.9952 8.83683C16.7202 8.56183 16.7202 8.11266 16.9952 7.83766Z" ></path>
        </g>
      </g>
    </g>
  </symbol>
  <symbol xmlns="http://www.w3.org/2000/svg" viewBox="0 0 22 22" id="playlist">
    <g id="playlist">
      <g id="vuesax/bold/music-library-2">
        <g id="music-library-2">
          <path id="Vector" d="M15.5834 4.35413H14.6667V2.98829C14.6667 2.22746 14.0434 1.60413 13.2825 1.60413H8.71754C7.95671 1.60413 7.33337 2.22746 7.33337 2.98829V4.35413H6.41671C5.40837 4.35413 4.58337 5.17913 4.58337 6.18746V6.30663C4.87671 6.22413 5.17921 6.18746 5.50004 6.18746H16.5C16.8209 6.18746 17.1234 6.22413 17.4167 6.30663V6.18746C17.4167 5.17913 16.5917 4.35413 15.5834 4.35413Z"  fill-opacity="0.25"></path>
          <path id="Vector_2" d="M12.7692 15.5192C12.4759 15.5192 12.2467 15.7575 12.2467 16.0417C12.2467 16.3258 12.485 16.5642 12.7692 16.5642C13.0534 16.5642 13.2917 16.3258 13.2917 16.0417C13.2917 15.7575 13.0534 15.5192 12.7692 15.5192Z" fill-opacity="0.25"></path>
          <path id="Vector_3" d="M8.31413 16.3258C8.02079 16.3258 7.79163 16.5641 7.79163 16.8483C7.79163 17.1325 8.02996 17.3708 8.31413 17.3708C8.59829 17.3708 8.83663 17.1325 8.83663 16.8483C8.83663 16.5641 8.60746 16.3258 8.31413 16.3258Z"  fill-opacity="0.25"></path>
          <path id="Vector_4" d="M17.4167 7.68167C17.1234 7.59917 16.8209 7.5625 16.5 7.5625H5.50004C5.17921 7.5625 4.87671 7.59917 4.58337 7.68167C3.00671 8.09417 1.83337 9.53333 1.83337 11.2292V16.7292C1.83337 18.7458 3.48337 20.3958 5.50004 20.3958H16.5C18.5167 20.3958 20.1667 18.7458 20.1667 16.7292V11.2292C20.1667 9.53333 18.9934 8.09417 17.4167 7.68167ZM14.6667 12.1733V16.0417C14.6667 17.0867 13.8142 17.9392 12.7692 17.9392C11.7242 17.9392 10.8717 17.0867 10.8717 16.0417C10.8717 14.9967 11.7242 14.1442 12.7692 14.1442C12.9525 14.1442 13.1267 14.1808 13.2917 14.2267V13.0717L10.2209 13.9058V16.8483C10.2209 16.8575 10.2209 16.8667 10.2117 16.8758C10.2025 17.9117 9.35004 18.755 8.31421 18.755C7.26921 18.755 6.41671 17.9025 6.41671 16.8483C6.41671 15.7942 7.26921 14.9508 8.31421 14.9508C8.49754 14.9508 8.67171 14.9875 8.84587 15.0333V13.3833V11.9625C8.84587 11.1742 9.34087 10.5325 10.0925 10.3308L12.5217 9.66167C13.3009 9.45083 13.7959 9.6525 14.0709 9.86333C14.3459 10.0742 14.6667 10.4867 14.6667 11.3025V12.1733Z"  fill-opacity="0.25"></path>
        </g>
      </g>
    </g>
  </symbol>
  <symbol xmlns="http://www.w3.org/2000/svg" viewBox="0 0 22 22" id="profile">
    <g id="profile" opacity="0.25">
      <g id="vuesax/bold/frame">
        <g id="frame">
          <path id="Vector" d="M11 1.83331C8.59837 1.83331 6.64587 3.78581 6.64587 6.18748C6.64587 8.54331 8.48837 10.45 10.89 10.5325C10.9634 10.5233 11.0367 10.5233 11.0917 10.5325C11.11 10.5325 11.1192 10.5325 11.1375 10.5325C11.1467 10.5325 11.1467 10.5325 11.1559 10.5325C13.5025 10.45 15.345 8.54331 15.3542 6.18748C15.3542 3.78581 13.4017 1.83331 11 1.83331Z" ></path>
          <path id="Vector_2" d="M15.6566 12.9708C13.0991 11.2658 8.9283 11.2658 6.35246 12.9708C5.1883 13.75 4.54663 14.8042 4.54663 15.9317C4.54663 17.0592 5.1883 18.1042 6.3433 18.8742C7.62663 19.7358 9.3133 20.1667 11 20.1667C12.6866 20.1667 14.3733 19.7358 15.6566 18.8742C16.8116 18.095 17.4533 17.05 17.4533 15.9133C17.4441 14.7858 16.8116 13.7408 15.6566 12.9708Z" ></path>
        </g>
      </g>
    </g>
  </symbol>
  <symbol xmlns="http://www.w3.org/2000/svg" viewBox="0 0 16 16" id="search">
    <g id="search">
      <path id="Vector" d="M7.33333 12.6667C10.2789 12.6667 12.6667 10.2789 12.6667 7.33333C12.6667 4.38781 10.2789 2 7.33333 2C4.38781 2 2 4.38781 2 7.33333C2 10.2789 4.38781 12.6667 7.33333 12.6667Z" stroke="white" stroke-opacity="0.25" stroke-width="1.33333" stroke-linecap="round" stroke-linejoin="round"></path>
      <path id="Vector_2" d="M14 14L11.1 11.1" stroke="white" stroke-opacity="0.25" stroke-width="1.33333" stroke-linecap="round" stroke-linejoin="round"></path>
    </g>
  </symbol>
  <symbol xmlns="http://www.w3.org/2000/svg" viewBox="0 0 22 22" id="videos">
    <g id="videos">
      <g id="vuesax/bold/video-horizontal">
        <g id="video-horizontal">
          <path id="Vector" d="M10.3125 7.20496H1.83337V14.8408C1.83337 14.8958 1.83337 14.9508 1.84254 14.9966H10.3125V7.20496Z"  fill-opacity="0.25"></path>
          <path id="Vector_2" d="M7.04919 5.83004H10.3125V1.83337H7.07669V5.72004C7.07669 5.75671 7.05836 5.79337 7.04919 5.83004Z"  fill-opacity="0.25"></path>
          <path id="Vector_3" d="M5.70168 5.71998V1.97998C3.66668 2.40165 2.33751 3.75831 1.95251 5.82998H5.72001C5.71085 5.79331 5.70168 5.75665 5.70168 5.71998Z"  fill-opacity="0.25"></path>
          <path id="Vector_4" d="M14.8683 1.83337H11.6875V5.83004H14.8683V1.83337Z"  fill-opacity="0.25"></path>
          <path id="Vector_5" d="M16.2341 5.82999H20.0475C19.6625 3.73999 18.315 2.37416 16.2433 1.97083V5.80249C16.2433 5.81166 16.2341 5.82083 16.2341 5.82999Z"  fill-opacity="0.25"></path>
          <path id="Vector_6" d="M16.2433 20.0292C18.2508 19.635 19.5708 18.3517 20.0016 16.3717H16.2433V20.0292Z"  fill-opacity="0.25"></path>
          <path id="Vector_7" d="M14.8683 16.3717H11.6875V20.1667H14.8683V16.3717Z"  fill-opacity="0.25"></path>
          <path id="Vector_8" d="M11.6875 14.9966H20.1575C20.1667 14.9508 20.1667 14.8958 20.1667 14.8408V7.20496H11.6875V14.9966Z"  fill-opacity="0.25"></path>
          <path id="Vector_9" d="M10.3125 16.3717H7.07666V20.1667H10.3125V16.3717Z"  fill-opacity="0.25"></path>
          <path id="Vector_10" d="M1.99829 16.3717C2.42912 18.3334 3.73079 19.6167 5.70162 20.02V16.3717H1.99829Z"  fill-opacity="0.25"></path>
        </g>
      </g>
    </g>
  </symbol>
</svg>